<?xml version="1.0" encoding="UTF-8"?><svg id="Calque_2" xmlns="http://www.w3.org/2000/svg" viewBox="0 0 67.33 58.14"><defs><style>.cls-1{fill:#fff;}</style></defs><g id="Layer_1"><g><path class="cls-1" d="M67.33,26.19c-.91,2.27-2.72,3.23-5.02,3.72-7.05,1.5-14.07,3.13-21.11,4.64-1.12,.24-1.44,.71-1.42,1.8,.05,5.39,.47,4.98-5.03,4.98-1.75,0-3.49,0-5.24,0-1.32,0-1.97-.65-1.97-1.97,0-.85-.11-1.71,.02-2.53,.25-1.6-.51-2.12-1.95-2.43-6.83-1.45-13.63-3-20.45-4.49C1.02,29.02,0,27.79,0,23.56c0-2.31,0-4.62,0-6.94,0-4.45,1.51-5.94,6.02-5.94,12.4,0,24.8,0,37.2,0,6.03,0,12.06,.07,18.09-.03,2.75-.05,4.82,.77,6.01,3.36v12.19Zm-27.32,5.44c.23,0,.35,.02,.45,0,7.42-1.65,14.84-3.31,22.26-4.94,1.25-.28,1.56-1.09,1.55-2.24-.03-2.82,0-5.64-.01-8.46-.01-1.82-.46-2.27-2.34-2.27-18.83,0-37.67,0-56.5,0-1.94,0-2.34,.43-2.35,2.43-.01,2.65,.07,5.31-.03,7.95-.07,1.68,.59,2.42,2.22,2.76,4.41,.91,8.79,1.96,13.19,2.94,2.95,.66,5.9,1.28,8.85,1.92q.63-2.66,3.33-2.66c2.03,0,4.06,0,6.09,0q2.71,0,3.31,2.57Zm-9.34,6.54h6v-5.89h-6v5.89Z"/><path class="cls-1" d="M33.66,58.13c-8.79,0-17.58,0-26.37,0-4.24,0-5.76-1.54-5.77-5.83,0-5.75,0-11.5,0-17.25,0-.56-.12-1.22,.13-1.66,.29-.49,.92-1.08,1.41-1.08,.49,0,1.13,.58,1.42,1.07,.25,.43,.14,1.1,.14,1.66,0,5.86,0,11.73,0,17.59,0,2.17,.28,2.46,2.43,2.46,17.75,0,35.5,0,53.25,0,2.13,0,2.4-.29,2.4-2.5,.01-5.86,0-11.73,0-17.59,0-.56-.11-1.23,.15-1.65,.29-.49,.94-1.05,1.43-1.04,.48,0,1.08,.61,1.39,1.1,.24,.38,.13,.98,.13,1.49,0,5.86,.01,11.73,0,17.59,0,4.06-1.58,5.64-5.62,5.64-8.85,.01-17.69,0-26.54,0Z"/><path class="cls-1" d="M33.77,.02c2.42,0,4.85-.05,7.27,.01,3.49,.08,5.61,2.77,4.77,6.19-.13,.55-.99,1.2-1.58,1.26-.39,.05-.96-.82-1.3-1.37-.18-.29-.05-.77-.06-1.17-.04-1.22-.63-1.89-1.88-1.89-4.91,0-9.81,0-14.72,0-1.17,0-1.76,.61-1.83,1.76-.03,.45,.13,1-.07,1.33-.33,.55-.87,1.3-1.35,1.33-.5,.03-1.4-.65-1.49-1.14C20.89,2.7,22.73,0,26.16,.02c2.54,0,5.07,0,7.61,0,0,0,0,0,0,0Z"/></g></g></svg>