<?xml version="1.0" encoding="UTF-8"?><svg id="Calque_2" xmlns="http://www.w3.org/2000/svg" viewBox="0 0 53.28 53.28"><defs><style>.cls-1{fill:#fff;}.cls-2{fill:none;stroke:#fff;stroke-linecap:round;stroke-linejoin:round;stroke-width:4px;}</style></defs><g id="Layer_1"><g><g><path class="cls-1" d="M11.12,19.5c.27-1.42,.53-2.84,1.3-4.11,1.76-2.88,4.52-3.98,7.7-4.06,4.34-.11,8.68-.1,13.02,0,2.94,.07,5.57,1.04,7.36,3.59,1.15,1.64,1.58,3.52,1.61,5.47,.06,4.17,.09,8.34,0,12.51-.08,3.36-1.24,6.22-4.39,7.93-1.45,.79-3.04,1.13-4.67,1.15-4.28,.05-8.57,.09-12.85,0-3.21-.07-6-1.16-7.79-4.07-.77-1.26-1.03-2.69-1.3-4.11v-14.3Zm15.54-5.23c-2.13,0-4.26-.04-6.38,0-3.32,.08-5.36,1.63-5.97,4.49-.13,.61-.22,1.23-.23,1.85-.02,4.03-.07,8.06,0,12.08,.08,4.01,2.11,6.15,5.97,6.29,4.36,.16,8.74,.15,13.1,0,3.22-.11,5.13-1.66,5.75-4.44,.11-.5,.21-1.01,.22-1.51,.02-4.59,.28-9.19-.14-13.77-.25-2.71-2.06-4.49-4.77-4.86-2.51-.34-5.04-.1-7.56-.15Z"/><path class="cls-1" d="M34.65,26.7c-.01,4.33-3.6,7.88-8.01,7.94-4.42,.05-8.09-3.6-8.08-8.04,.01-4.37,3.74-8.02,8.1-7.94,4.47,.08,8.01,3.64,7.99,8.04Zm-2.98-.04c0-2.75-2.26-5.01-5.05-5.02-2.77-.01-5.07,2.25-5.07,5,0,2.75,2.26,5.01,5.05,5.02,2.77,.01,5.07-2.25,5.07-5Z"/><path class="cls-1" d="M34.87,16.56c1.07-.01,1.97,.87,1.96,1.92,0,1.01-.87,1.87-1.9,1.9-1.06,.03-1.99-.84-2-1.89-.02-1.06,.85-1.93,1.95-1.94Z"/></g><rect class="cls-2" x="2" y="2" width="49.28" height="49.28" rx="12.61" ry="12.61"/></g></g></svg>