<svg width="305" height="179" viewBox="0 0 305 179" fill="none" xmlns="http://www.w3.org/2000/svg">
<path d="M25.28 88.56C21.1733 88.56 17.4933 87.8933 14.24 86.56C10.9867 85.2267 8.37333 83.2533 6.4 80.64C4.48 78.0267 3.46667 74.88 3.36 71.2H17.92C18.1333 73.28 18.8533 74.88 20.08 76C21.3067 77.0667 22.9067 77.6 24.88 77.6C26.9067 77.6 28.5067 77.1467 29.68 76.24C30.8533 75.28 31.44 73.9733 31.44 72.32C31.44 70.9333 30.96 69.7867 30 68.88C29.0933 67.9733 27.9467 67.2267 26.56 66.64C25.2267 66.0533 23.3067 65.3867 20.8 64.64C17.1733 63.52 14.2133 62.4 11.92 61.28C9.62667 60.16 7.65333 58.5067 6 56.32C4.34667 54.1333 3.52 51.28 3.52 47.76C3.52 42.5333 5.41333 38.4533 9.2 35.52C12.9867 32.5333 17.92 31.04 24 31.04C30.1867 31.04 35.1733 32.5333 38.96 35.52C42.7467 38.4533 44.7733 42.56 45.04 47.84H30.24C30.1333 46.0267 29.4667 44.6133 28.24 43.6C27.0133 42.5333 25.44 42 23.52 42C21.8667 42 20.5333 42.4533 19.52 43.36C18.5067 44.2133 18 45.4667 18 47.12C18 48.9333 18.8533 50.3467 20.56 51.36C22.2667 52.3733 24.9333 53.4667 28.56 54.64C32.1867 55.8667 35.12 57.04 37.36 58.16C39.6533 59.28 41.6267 60.9067 43.28 63.04C44.9333 65.1733 45.76 67.92 45.76 71.28C45.76 74.48 44.9333 77.3867 43.28 80C41.68 82.6133 39.3333 84.6933 36.24 86.24C33.1467 87.7867 29.4933 88.56 25.28 88.56ZM67.6188 31.84V65.44C67.6188 68.8 68.4454 71.3867 70.0988 73.2C71.7521 75.0133 74.1788 75.92 77.3788 75.92C80.5788 75.92 83.0321 75.0133 84.7388 73.2C86.4454 71.3867 87.2988 68.8 87.2988 65.44V31.84H100.979V65.36C100.979 70.3733 99.9121 74.6133 97.7788 78.08C95.6454 81.5467 92.7654 84.16 89.1388 85.92C85.5654 87.68 81.5654 88.56 77.1388 88.56C72.7121 88.56 68.7388 87.7067 65.2188 86C61.7521 84.24 59.0054 81.6267 56.9788 78.16C54.9521 74.64 53.9388 70.3733 53.9388 65.36V31.84H67.6188ZM160.825 88H147.145L124.265 53.36V88H110.585V31.84H124.265L147.145 66.64V31.84H160.825V88Z" fill="#052E75"/>
<path d="M42.16 123.16C42.16 127.96 40.5867 131.827 37.44 134.76C34.2933 137.693 29.5733 139.16 23.28 139.16H12V163H6.4V107.08H23.28C29.52 107.08 34.2133 108.547 37.36 111.48C40.56 114.413 42.16 118.307 42.16 123.16ZM23.28 134.36C32.0267 134.36 36.4 130.627 36.4 123.16C36.4 119.427 35.36 116.6 33.28 114.68C31.2 112.76 27.8667 111.8 23.28 111.8H12V134.36H23.28ZM207.209 107.08L191.369 163H185.129L171.049 115.32L156.649 163L150.569 163.08L135.049 107.08H141.049L153.849 156.12L168.169 107.08H174.409L188.329 156.12L201.209 107.08H207.209ZM221.375 111.64V132.52H242.575V137.16H221.375V158.36H244.975V163H215.775V107H244.975V111.64H221.375ZM285.769 163L271.929 139.64H261.609V163H256.009V107.08H272.809C279.049 107.08 283.769 108.573 286.969 111.56C290.223 114.547 291.849 118.467 291.849 123.32C291.849 127.373 290.676 130.84 288.329 133.72C286.036 136.547 282.623 138.387 278.089 139.24L292.489 163H285.769ZM261.609 135.08H272.889C277.263 135.08 280.543 134.013 282.729 131.88C284.969 129.747 286.089 126.893 286.089 123.32C286.089 119.64 285.023 116.813 282.889 114.84C280.756 112.813 277.396 111.8 272.809 111.8H261.609V135.08Z" fill="#052E75"/>
<circle cx="89.6202" cy="140.62" r="37.6202" fill="#FFDD63"/>
<path d="M65 137.068L97 98H115.5L94.5 127.578H114L73 174L86 137.068H65Z" fill="white"/>
</svg>
