<?xml version="1.0" encoding="UTF-8"?><svg id="Calque_2" xmlns="http://www.w3.org/2000/svg" viewBox="0 0 58.19 60.62"><defs><style>.cls-1{fill:#fff;}</style></defs><g id="Layer_1"><path class="cls-1" d="M39.13,33.34c4.91-3.26,8.16-8.83,8.16-15.15C47.28,8.16,39.12,0,29.1,0S10.91,8.16,10.91,18.18c0,6.32,3.25,11.89,8.16,15.15C7.96,37.44,0,48.1,0,60.62H4.85c0-13.37,10.88-24.25,24.25-24.25s24.25,10.88,24.25,24.25h4.85c0-12.51-7.96-23.18-19.07-27.28Zm-10.03-1.82c-7.35,0-13.34-5.98-13.34-13.34s5.98-13.34,13.34-13.34,13.34,5.98,13.34,13.34-5.98,13.34-13.34,13.34Z"/></g></svg>