<?xml version="1.0" encoding="UTF-8"?><svg id="Calque_2" xmlns="http://www.w3.org/2000/svg" viewBox="0 0 164.59 105"><defs><style>.cls-1{fill:#fff;}</style></defs><g id="Layer_1"><g><path class="cls-1" d="M94.04,73.07c5.75-3.82,9.54-10.34,9.54-17.74,0-11.74-9.55-21.28-21.28-21.28s-21.28,9.55-21.28,21.28c0,7.4,3.8,13.92,9.54,17.74-13,4.8-22.32,17.28-22.32,31.93h5.68c0-15.65,12.73-28.38,28.38-28.38s28.38,12.73,28.38,28.38h5.68c0-14.65-9.31-27.13-22.32-31.93Zm-11.74-2.13c-8.61,0-15.61-7-15.61-15.61s7-15.61,15.61-15.61,15.61,7,15.61,15.61-7,15.61-15.61,15.61Z"/><path class="cls-1" d="M122.41,58.89c5.75-3.82,9.54-10.34,9.54-17.74,0-11.74-9.55-21.28-21.28-21.28-5.69,0-10.85,2.25-14.67,5.9-1.42,1.35-2.64,2.89-3.64,4.58,1.77,.72,3.46,1.6,5.02,2.66,1-1.63,2.29-3.06,3.81-4.23,2.63-2.02,5.91-3.24,9.48-3.24,8.61,0,15.61,7,15.61,15.61,0,7.14-4.83,13.17-11.39,15.01-1.34,.38-2.75,.59-4.22,.59-.5,0-1-.03-1.49-.08-.1,2.04-.42,4.03-.96,5.93,.81-.07,1.61-.17,2.44-.17,1.15,0,2.28,.09,3.4,.22,14.05,1.69,24.98,13.66,24.98,28.15h5.68c0-14.65-9.31-27.13-22.32-31.93Z"/><path class="cls-1" d="M53.92,62.43c.83,0,1.63,.1,2.44,.17-.53-1.9-.85-3.88-.96-5.93-.49,.05-.99,.08-1.49,.08-1.46,0-2.87-.22-4.22-.59-6.56-1.85-11.39-7.87-11.39-15.01,0-8.61,7-15.61,15.61-15.61,3.57,0,6.85,1.22,9.48,3.24,1.51,1.16,2.81,2.6,3.81,4.23,1.56-1.06,3.25-1.94,5.02-2.66-1-1.69-2.23-3.23-3.64-4.58-3.82-3.64-8.98-5.9-14.67-5.9-11.74,0-21.28,9.55-21.28,21.28,0,7.4,3.8,13.92,9.54,17.74-13,4.8-22.32,17.28-22.32,31.93h5.68c0-14.5,10.93-26.47,24.98-28.15,1.12-.13,2.25-.22,3.4-.22Z"/><path class="cls-1" d="M142.28,39.02c5.75-3.82,9.54-10.34,9.54-17.74,0-11.74-9.55-21.28-21.28-21.28-5.69,0-10.85,2.25-14.67,5.9-1.42,1.35-2.64,2.89-3.64,4.58,1.77,.72,3.46,1.6,5.02,2.66,1-1.63,2.29-3.06,3.81-4.23,2.63-2.02,5.91-3.24,9.48-3.24,8.61,0,15.61,7,15.61,15.61,0,6.29-3.75,11.7-9.12,14.17,.24,1.35,.39,2.72,.39,4.14,0,1.29-.14,2.55-.34,3.78,12.5,2.96,21.84,14.18,21.84,27.58h5.68c0-14.65-9.31-27.13-22.32-31.93Z"/><path class="cls-1" d="M27.18,39.59c0-1.41,.15-2.79,.39-4.14-5.37-2.47-9.12-7.88-9.12-14.17,0-8.61,7-15.61,15.61-15.61,3.57,0,6.85,1.22,9.48,3.24,1.51,1.16,2.81,2.6,3.81,4.23,1.56-1.06,3.25-1.94,5.02-2.66-1-1.69-2.23-3.23-3.64-4.58-3.82-3.64-8.98-5.9-14.67-5.9C22.32,0,12.77,9.55,12.77,21.28c0,7.4,3.8,13.92,9.55,17.74C9.31,43.82,0,56.3,0,70.95H5.68c0-13.39,9.34-24.62,21.84-27.58-.2-1.23-.34-2.49-.34-3.78Z"/><path class="cls-1" d="M82.3,5.68c7.59,0,13.86,5.47,15.25,12.66,3.11-1.87,5.35-2.29,5.35-2.29C100.56,6.84,92.22,0,82.3,0s-18.26,6.84-20.6,16.04c0,0,2.24,.42,5.35,2.29,1.39-7.19,7.66-12.66,15.25-12.66Z"/></g></g></svg>