<?xml version="1.0" encoding="UTF-8"?><svg id="Calque_2" xmlns="http://www.w3.org/2000/svg" viewBox="0 0 64.86 53.28"><defs><style>.cls-1{fill:#fff;}</style></defs><g id="Layer_1"><path class="cls-1" d="M0,47.08c7.13,.63,13.38-1.07,19.16-5.21-1.25-.32-2.31-.53-3.34-.86-3.87-1.22-6.56-3.78-8.24-7.44-.52-1.13-.4-1.22,.83-1.2,1.27,.02,2.57,.21,4.08-.36-2.32-.66-4.17-1.69-5.73-3.15-2.52-2.35-4.01-5.23-4.27-8.69-.11-1.4,.07-1.49,1.32-.93,1.22,.56,2.48,.92,4.01,.93-.95-1.09-1.98-1.89-2.72-2.95C2.17,13,1.68,8.52,3.69,3.79c.54-1.26,.75-1.31,1.66-.29,4.46,5.01,9.82,8.7,16.17,10.9,2.8,.97,5.68,1.61,8.63,1.91,1.51,.15,1.64,0,1.47-1.49-.62-5.28,2.37-10.81,7.21-13.33,4.85-2.53,11.07-1.81,15.01,1.8,.77,.7,1.5,.86,2.47,.59,2.06-.57,4.05-1.3,5.94-2.29,.29-.15,.55-.47,1.1-.27-.91,2.83-2.69,4.98-4.96,6.84,2.23-.27,4.32-.91,6.48-1.75,.05,.74-.39,1.12-.7,1.52-1.33,1.72-2.81,3.31-4.56,4.6-.82,.6-1.1,1.3-1.08,2.3,.14,8.88-2.72,16.81-8.03,23.83-6.31,8.34-14.79,13.05-25.15,14.31-8.56,1.04-16.61-.58-24.11-4.88-.27-.16-.54-.33-.8-.51-.09-.06-.15-.17-.43-.5Z"/></g></svg>